<svg xmlns="http://www.w3.org/2000/svg" xmlns:xlink="http://www.w3.org/1999/xlink"
  viewBox="0 0 421.76 373.21">
  <defs>
    <style>
      .a {
      fill: url(#a);
      }

      .b {
      fill: url(#b);
      }

      .c {
      fill: url(#c);
      }

      .d {
      fill: url(#d);
      }

      .e {
      fill: url(#e);
      }

      .f {
      fill: url(#f);
      }

      .g {
      font-size: 31.39px;
      fill: #662483;
      font-family: Tajawal-Bold, Tajawal;
      font-weight: 700;
      }

      .h {
      font-size: 30.53px;
      fill: #9d9d9c;
      font-family: Tajawal-Regular, Tajawal;
      }
    </style>
    <linearGradient id="a" x1="319.47" y1="224.55" x2="133.77" y2="48.22"
      gradientUnits="userSpaceOnUse">
      <stop offset="0" stop-color="#1d71b8" />
      <stop offset="1" stop-color="#951b81" />
    </linearGradient>
    <linearGradient id="b" x1="310.22" y1="299.36" x2="31.14" y2="81.96" xlink:href="#a" />
    <linearGradient id="c" x1="312.26" y1="296.74" x2="33.18" y2="79.34" xlink:href="#a" />
    <linearGradient id="d" x1="325.76" y1="279.41" x2="46.67" y2="62.01" xlink:href="#a" />
    <linearGradient id="e" x1="368.89" y1="218.76" x2="89.81" y2="1.37" xlink:href="#a" />
    <linearGradient id="f" x1="295.35" y1="324.09" x2="16.27" y2="106.69" xlink:href="#a" />
  </defs>
  <g>
    <path class="a"
      d="M278.88,124.31a72.62,72.62,0,0,0-45.15-40.6A101.71,101.71,0,0,1,275,73.57a76.14,76.14,0,0,0-55.45-.38c-2.78-14.89-8.66-20.86-8.66-20.86s-5.92,6-8.69,21a76.14,76.14,0,0,0-55.68.72,101.85,101.85,0,0,1,41.2,9.74,72.64,72.64,0,0,0-44.83,40.5,100,100,0,0,1,41.48-22.63,68.93,68.93,0,0,0-5.15,65.1,93.58,93.58,0,0,1,26.2-62.43c-.07,9.36,0,40.13,0,40.13s-.1-12.44,0-5.52c.08,6.4,2,85.88,5.45,91.23,3.49-5.35,5.37-84.83,5.46-91.23.09-6.92,0,5.52,0,5.52s.08-30.86,0-40.17a93.59,93.59,0,0,1,26.72,62.22,68.89,68.89,0,0,0-5.53-64.81A99.88,99.88,0,0,1,278.88,124.31Z" />
    <g>
      <g>
        <path class="b"
          d="M204.34,237.59c-3,2.52-6,4.82-8.93,6.94a286.44,286.44,0,0,1-27.7-26.63C149,197.34,133.89,175.07,125.11,155a15.42,15.42,0,0,1-14-15.59,14.54,14.54,0,0,1,4.64-10.4,13.63,13.63,0,0,1,2.55-1.92,14.76,14.76,0,0,1,12.22-1.17A15.23,15.23,0,0,1,136.9,130a15.06,15.06,0,0,1,1.94,18.21c7.85,18.49,20,38.26,35.37,57.34A276.17,276.17,0,0,0,204.34,237.59Z" />
        <path class="c"
          d="M283.69,256.31c0,6.68-1.81,12-5.94,15.71s-9.51,5.44-16,5.44c-11.86,0-27.25-5.85-43.93-16.46,2.76-2,5.51-4.05,8.29-6.25,20.23,13.68,37.91,18.78,47,11.56,6.58-5.23,10-17.4,6.1-33.24C282,242.1,283.69,249.88,283.69,256.31Z" />
      </g>
      <path class="d"
        d="M310,139.38A15.36,15.36,0,0,1,296,155c-8.75,20.1-23.85,42.37-42.57,62.93a277,277,0,0,1-34.31,31.93q-4.32,3.4-8.57,6.35c-19.44,13.65-37.57,21.28-51.14,21.28-6.51,0-12-1.76-16-5.46-8.06-7.35-7.27-20.46-1.38-38.93-3.9,15.84-.51,28,6.07,33.24a16.7,16.7,0,0,0,10.64,3.29c11.09,0,26.58-7.24,43.26-19.77q4.24-3.18,8.57-6.81A267.36,267.36,0,0,0,247,205.55c15.33-19.08,27.55-38.85,35.38-57.34a15.28,15.28,0,0,1,8.34-22.32,14.75,14.75,0,0,1,4.82-.82,14.52,14.52,0,0,1,7.35,2,14.67,14.67,0,0,1,2.6,1.92A14.5,14.5,0,0,1,310,139.38Z" />
    </g>
    <polygon class="e"
      points="317.32 273.44 305.93 268.03 349.82 175.71 305.96 85.8 317.29 80.27 363.82 175.64 317.32 273.44" />
    <polygon class="f"
      points="104.11 80.27 115.5 85.68 71.61 178 115.47 267.91 104.14 273.44 57.62 178.07 104.11 80.27" />
  </g>
</svg>